# xmcd
#
# Track frame offsets: 
#        150
#        31620
#        48627
#        61520
#        86122
#        103760
#        119862
#        136942
#        159175
#        179722
#
# Disc length: 2585 seconds
#
# Revision: 0
# Processed by: cddbd v1.5.2PL0 Copyright (c) Steve Scherf et al.
# Submitted via: ExactAudioCopyFreeDBPlugin 1.0
#
DISCID=840a170a
DTITLE=Lightnin' Hopkins - Free Form Patterns
DYEAR=1968
DGENRE=Blues
TTITLE0=Mr. Charlie
TTITLE1=Give Me Time To Think
TTITLE2=Fox Chase
TTITLE3=Mr. Dittas' Grocery Store
TTITLE4=Open Up Your Door
TTITLE5=Baby Child
TTITLE6=Cookings Done
TTITLE7=Got Her Letter This Morning
TTITLE8=Rain Falling
TTITLE9=Mini Skirt
EXTD=
EXTT0=
EXTT1=
EXTT2=
EXTT3=
EXTT4=
EXTT5=
EXTT6=
EXTT7=
EXTT8=
EXTT9=
PLAYORDER=
